# Blender 5.0.1
# www.blender.org
mtllib neon_tetra_model.mtl
o neonTetraModel
v -0.139335 0.463656 0.099704
v -0.139596 -0.436005 0.099704
v 0.139334 0.463656 0.099704
v 0.139596 -0.436005 0.099704
v -0.158710 0.452741 0.772700
v -0.158709 -0.423009 0.772701
v 0.158709 0.452741 0.772700
v 0.158709 -0.423009 0.772701
v -0.118110 0.303311 1.352629
v -0.129379 -0.283629 1.352630
v 0.118109 0.303311 1.352629
v 0.129379 -0.283629 1.352630
v -0.075143 0.165037 1.710944
v -0.079089 -0.094175 1.710944
v 0.075142 0.165037 1.710944
v 0.079089 -0.094175 1.710944
v -0.116983 0.361746 -0.508546
v -0.116982 -0.304540 -0.508546
v 0.116982 0.361746 -0.508546
v 0.116983 -0.304540 -0.508546
v -0.051502 0.232077 -1.262192
v -0.067406 -0.079233 -1.262192
v 0.051502 0.232077 -1.262192
v 0.067406 -0.079233 -1.262192
v -0.015711 0.203727 -1.543154
v -0.028182 -0.054755 -1.543154
v 0.015711 0.203727 -1.543154
v 0.028182 -0.054755 -1.543154
v 0.000000 -0.474372 0.772701
v -0.000000 0.517091 0.099704
v -0.000000 0.504104 0.772700
v 0.000000 -0.489440 0.099704
v -0.000000 -0.316869 1.353244
v -0.000000 0.336683 1.353244
v -0.000000 -0.084695 1.732222
v -0.000000 0.159865 1.732222
v -0.000000 0.399253 -0.508546
v 0.000000 -0.342047 -0.508546
v -0.000000 0.247057 -1.262525
v 0.000000 -0.094213 -1.262525
v 0.000000 0.239242 -1.556494
v 0.000000 -0.090150 -1.556494
v -0.172133 0.181047 0.099704
v -0.171479 -0.153396 0.099704
v 0.188218 -0.147703 0.772701
v 0.188218 0.177436 0.772701
v 0.172133 0.181047 0.099704
v 0.171479 -0.153396 0.099704
v -0.188218 0.177436 0.772701
v -0.188218 -0.147704 0.772701
v 0.146347 -0.098775 1.353244
v 0.141666 0.118589 1.353244
v -0.141666 0.118589 1.353244
v -0.146348 -0.098775 1.353244
v 0.079849 -0.006212 1.732836
v 0.078466 0.081513 1.732836
v -0.078466 0.081513 1.732836
v -0.079849 -0.006212 1.732836
v -0.154071 0.151788 -0.508546
v -0.154339 -0.094582 -0.508546
v 0.154071 0.151788 -0.508546
v 0.154339 -0.094582 -0.508546
v -0.068332 0.133332 -1.262525
v -0.073000 0.019512 -1.262525
v 0.068332 0.133332 -1.262525
v 0.073000 0.019512 -1.262525
v -0.014148 0.135572 -1.595799
v -0.019562 0.013520 -1.595799
v 0.014148 0.135572 -1.595799
v 0.019562 0.013520 -1.595799
v 0.000000 0.137295 -1.656889
v 0.000000 0.012152 -1.656889
v -0.000000 0.076288 1.795439
v -0.000000 0.011670 1.795439
v 0.000000 0.256688 -1.495936
v 0.000000 -0.107528 -1.534963
v 0.000000 0.183009 -1.863545
v 0.000000 0.096240 -1.879470
v -0.000000 0.644760 -2.077680
v 0.000000 0.603052 -2.142711
v 0.000000 -0.558955 -2.081003
v 0.000000 -0.548294 -2.188377
v 0.000000 -0.004298 -1.702506
v 0.000000 0.216709 -1.702506
v -0.000000 0.655777 -2.136540
v 0.000000 -0.638541 -2.203860
v 0.000000 -0.283449 -1.797890
v 0.000000 -0.214588 -2.015083
v 0.000000 -0.231255 -1.904737
v 0.000000 0.369184 -1.949719
v -0.000000 0.443098 -1.803966
v 0.000000 0.411611 -1.887965
v 0.000000 0.237903 -1.414377
v 0.000000 -0.080695 -1.418452
v -0.000000 0.536870 0.107567
v -0.000000 0.429464 -0.330401
v -0.000000 1.068940 -0.515919
v -0.000000 0.567411 -0.522116
v -0.000000 0.462726 -0.366010
v -0.000000 0.505261 -0.467472
v -0.000000 0.923814 -0.287022
v -0.000000 0.741422 -0.082408
v -0.000000 0.511222 0.002985
v -0.000000 0.465266 -0.184412
v -0.000000 1.006121 -0.556612
v -0.000000 0.720881 -0.539364
v -0.000000 0.555625 -0.271476
v -0.000000 0.677296 -0.147662
v -0.000000 0.666273 -0.399846
v -0.000000 0.842535 -0.322063
v -0.000000 0.494690 0.279625
v -0.000000 0.412266 -0.314720
v -0.000000 0.475008 0.137701
v -0.000000 0.439741 -0.116605
v 0.000000 -0.348085 -0.358564
v 0.000000 -0.120588 -1.077430
v 0.000000 -0.801600 -0.919733
v 0.000000 -0.197295 -1.213349
v 0.000000 -0.190589 -0.844537
v 0.000000 -0.260590 -0.611643
v 0.000000 -0.331892 -1.079591
v 0.000000 -0.466488 -0.881238
v 0.000000 -0.587627 -0.551003
v 0.000000 -0.128663 -1.157501
v 0.000000 -0.253839 -0.947260
v 0.000000 -0.379015 -0.737020
v 0.000000 -0.745752 -0.768338
v 0.000000 -0.292865 -1.013426
v 0.000000 -0.430153 -0.810475
v 0.000000 -0.150867 -1.222432
v 0.000000 -0.309010 -0.479652
v 0.000000 -0.762830 -0.933662
v 0.000000 -0.518786 -0.612388
v 0.000000 -0.664508 -0.779185
v 0.000000 -0.458246 -0.669253
v 0.000000 -0.547331 -0.794830
v 0.000000 -0.287915 -0.540585
v 0.000000 -0.562848 -0.879190
v 0.000000 -0.459606 0.151845
v 0.000000 -0.374677 -0.200689
v 0.000000 -0.536496 0.128528
v 0.000000 -0.739671 -0.256714
v 0.000000 -0.426877 -0.027148
v 0.000000 -0.677412 -0.059031
v 0.000000 -0.523859 -0.220402
v 0.000000 -0.703413 -0.295409
v 0.000000 -0.504636 0.151097
v 0.000000 -0.482121 0.162763
v 0.000000 -0.497149 -0.045563
v 0.000000 -0.610255 -0.056191
vn 0.3317 0.9433 0.0120
vn 0.9935 0.1110 -0.0250
vn 0.2737 -0.9301 0.2449
vn 0.3314 -0.9434 0.0150
vn 0.9888 -0.1390 -0.0541
vn -0.9935 0.1110 -0.0250
vn -0.1763 0.9014 0.3955
vn -0.2830 0.9227 0.2618
vn -0.9920 -0.1003 0.0771
vn 0.9889 0.1142 0.0948
vn -0.4129 0.4199 0.8082
vn 0.9795 0.1122 0.1676
vn -0.9795 -0.0789 0.1852
vn 0.1497 -0.8539 0.4985
vn -0.2619 -0.9183 -0.2968
vn -0.9889 0.1403 -0.0480
vn -0.3261 -0.9201 -0.2170
vn 0.3293 0.9281 -0.1737
vn 0.6097 0.7878 -0.0875
vn 0.9837 -0.1370 -0.1163
vn 0.2925 0.9376 -0.1880
vn -0.9785 0.1710 -0.1150
vn 0.9378 0.2275 -0.2624
vn -0.9793 0.1370 -0.1493
vn -0.4734 -0.8776 -0.0759
vn 0.9882 -0.0297 -0.1500
vn 0.4734 -0.8776 -0.0759
vn -0.9378 0.2275 -0.2624
vn -0.2925 0.9376 -0.1880
vn -0.6097 0.7878 -0.0875
vn -0.3293 0.9281 -0.1737
vn 0.3261 -0.9201 -0.2170
vn 0.2619 -0.9183 -0.2968
vn -0.1497 -0.8539 0.4985
vn 0.4129 0.4199 0.8082
vn 0.2830 0.9227 0.2618
vn 0.1763 0.9014 0.3955
vn -0.3314 -0.9434 0.0150
vn -0.2737 -0.9301 0.2449
vn -0.3317 0.9433 0.0120
vn 0.3765 -0.3896 0.8405
vn 0.6206 0.0056 0.7841
vn -0.8621 -0.3136 -0.3981
vn -0.9638 0.0211 -0.2658
vn 0.9793 0.1370 -0.1493
vn 0.9863 0.0422 -0.1595
vn -0.9882 -0.0297 -0.1500
vn -0.9863 0.0422 -0.1595
vn 0.8621 -0.3136 -0.3981
vn 0.9638 0.0211 -0.2658
vn -0.9837 -0.1370 -0.1163
vn -0.9939 0.0136 -0.1093
vn 0.9785 0.1710 -0.1150
vn 0.9939 0.0136 -0.1093
vn -0.9888 -0.1390 -0.0541
vn -0.9996 -0.0007 -0.0289
vn -0.9795 0.1122 0.1676
vn -0.9858 0.0196 0.1670
vn 0.9795 -0.0789 0.1852
vn 0.9858 0.0196 0.1670
vn -0.3765 -0.3896 0.8405
vn -0.6206 0.0056 0.7841
vn 0.9920 -0.1003 0.0771
vn 0.9971 0.0086 0.0760
vn -0.9889 0.1142 0.0948
vn -0.9971 0.0086 0.0760
vn -0.9937 -0.1093 -0.0249
vn -0.9997 -0.0010 -0.0244
vn 0.9889 0.1403 -0.0480
vn 0.9996 -0.0007 -0.0289
vn 0.9937 -0.1093 -0.0249
vn 0.9997 -0.0010 -0.0244
vn 1.0000 -0.0000 -0.0000
vn -1.0000 -0.0000 -0.0000
vt 0.511210 0.671285
vt 0.379956 0.667720
vt 0.379956 0.653622
vt 0.511210 0.656618
vt 0.511210 0.579049
vt 0.379956 0.578058
vt 0.379956 0.399153
vt 0.379956 0.413251
vt 0.266853 0.451507
vt 0.266733 0.442383
vt 0.511210 0.395017
vt 0.511210 0.409684
vt 0.511210 0.487253
vt 0.629836 0.445768
vt 0.629836 0.503396
vt 0.379956 0.653622
vt 0.272315 0.618026
vt 0.272435 0.608867
vt 0.196971 0.574655
vt 0.192821 0.573235
vt 0.379956 0.488815
vt 0.379956 0.413251
vt 0.266733 0.502245
vt 0.266733 0.561906
vt 0.187137 0.548799
vt 0.192701 0.551730
vt 0.209198 0.500515
vt 0.192701 0.527651
vt 0.205048 0.503117
vt 0.629836 0.435473
vt 0.774710 0.515626
vt 0.774775 0.511514
vt 0.629836 0.628646
vt 0.629836 0.571018
vt 0.629836 0.638941
vt 0.776885 0.597167
vt 0.776820 0.593056
vt 0.831616 0.585274
vt 0.834217 0.595022
vt 0.776885 0.534712
vt 0.776885 0.565953
vt 0.853797 0.567041
vt 0.841883 0.566567
vt 0.841883 0.566567
vt 0.831405 0.518484
vt 0.834006 0.508769
vt 0.841883 0.533067
vt 0.180492 0.532559
vt 0.853797 0.532692
vt 0.629836 0.571018
vt 0.862694 0.588837
vt 0.862694 0.528177
vt 0.897207 0.555772
vt 0.894101 0.579588
vt 0.898864 0.642333
vt 0.910907 0.630688
vt 0.948546 0.694879
vt 0.947343 0.709351
vt 0.902135 0.465883
vt 0.881297 0.451557
vt 0.936512 0.375937
vt 0.960473 0.354093
vt 0.923655 0.470457
vt 0.957453 0.378863
vt 0.882482 0.650976
vt 0.935864 0.706327
vt 0.822407 0.599811
vt 0.830018 0.499843
vt 0.806500 0.594655
vt 0.807295 0.507207
vt 0.608637 0.712232
vt 0.621826 0.668038
vt 0.632483 0.685097
vt 0.635847 0.727220
vt 0.566621 0.657060
vt 0.595093 0.647233
vt 0.602038 0.656363
vt 0.583601 0.681861
vt 0.546727 0.732858
vt 0.559453 0.715257
vt 0.593467 0.760611
vt 0.586632 0.782920
vt 0.509676 0.676714
vt 0.530073 0.669674
vt 0.639211 0.805511
vt 0.631274 0.822754
vt 0.503799 0.659734
vt 0.553396 0.650054
vt 0.476120 0.665136
vt 0.592035 0.642513
vt 0.682619 0.346965
vt 0.680503 0.324666
vt 0.710030 0.309337
vt 0.712747 0.319979
vt 0.769065 0.487947
vt 0.728303 0.448972
vt 0.741207 0.438260
vt 0.767294 0.475204
vt 0.688721 0.411290
vt 0.702522 0.401317
vt 0.695364 0.477044
vt 0.649943 0.457831
vt 0.674396 0.425326
vt 0.715399 0.459684
vt 0.740786 0.496258
vt 0.756402 0.494042
vt 0.624201 0.444541
vt 0.600585 0.433816
vt 0.638117 0.368067
vt 0.650089 0.386963
vt 0.661179 0.403579
vt 0.685670 0.379128
vt 0.636085 0.450331
vt 0.702123 0.374869
vt 0.541614 0.361857
vt 0.588268 0.336287
vt 0.580722 0.326335
vt 0.542168 0.343424
vt 0.501187 0.390846
vt 0.505588 0.382102
vt 0.501041 0.403206
vt 0.535950 0.412189
vt 0.539541 0.392901
vt 0.498912 0.397026
vt 0.569795 0.426517
vt 0.573640 0.385570
s 0
usemtl Fish
f 30/1/1 31/2/1 7/3/1 3/4/1
f 47/5/2 3/4/2 7/3/2 46/6/2
f 29/7/3 8/8/3 12/9/3 33/10/3
f 29/7/4 32/11/4 4/12/4 8/8/4
f 48/13/5 4/12/5 20/14/5 62/15/5
f 49/6/6 5/16/6 1/4/6 43/5/6
f 34/17/7 9/18/7 13/19/7 36/20/7
f 31/2/8 5/16/8 9/18/8 34/17/8
f 50/21/9 6/22/9 10/9/9 54/23/9
f 46/6/10 7/3/10 11/18/10 52/24/10
f 73/25/11 36/20/11 13/19/11 57/26/11
f 52/24/12 11/18/12 15/19/12 56/26/12
f 54/23/13 10/9/13 14/27/13 58/28/13
f 33/10/14 12/9/14 16/27/14 35/29/14
f 38/30/15 18/14/15 22/31/15 40/32/15
f 43/5/16 1/4/16 17/33/16 59/34/16
f 32/11/17 2/12/17 18/14/17 38/30/17
f 30/1/18 3/4/18 19/33/18 37/35/18
f 39/36/19 23/37/19 27/38/19 41/39/19
f 62/15/20 20/14/20 24/31/20 66/40/20
f 37/35/21 19/33/21 23/37/21 39/36/21
f 59/34/22 17/33/22 21/37/22 63/41/22
f 71/42/23 41/39/23 27/38/23 69/43/23
f 63/41/24 21/37/24 25/38/24 67/44/24
f 40/32/25 22/31/25 26/45/25 42/46/25
f 66/40/26 24/31/26 28/45/26 70/47/26
f 24/31/27 40/32/27 42/46/27 28/45/27
f 67/44/28 25/38/28 41/39/28 71/42/28
f 17/33/29 37/35/29 39/36/29 21/37/29
f 21/37/30 39/36/30 41/39/30 25/38/30
f 1/4/31 30/1/31 37/35/31 17/33/31
f 4/12/32 32/11/32 38/30/32 20/14/32
f 20/14/33 38/30/33 40/32/33 24/31/33
f 10/9/34 33/10/34 35/29/34 14/27/34
f 56/26/35 15/19/35 36/20/35 73/25/35
f 7/3/36 31/2/36 34/17/36 11/18/36
f 11/18/37 34/17/37 36/20/37 15/19/37
f 6/22/38 2/12/38 32/11/38 29/7/38
f 6/22/39 29/7/39 33/10/39 10/9/39
f 1/4/40 5/16/40 31/2/40 30/1/40
f 16/27/41 55/28/41 74/48/41 35/29/41
f 55/28/42 56/26/42 73/25/42 74/48/42
f 26/45/43 68/47/43 72/49/43 42/46/43
f 68/47/44 67/44/44 71/42/44 72/49/44
f 23/37/45 65/41/45 69/43/45 27/38/45
f 65/41/46 66/40/46 70/47/46 69/43/46
f 22/31/47 64/40/47 68/47/47 26/45/47
f 64/40/48 63/41/48 67/44/48 68/47/48
f 42/46/49 72/49/49 70/47/49 28/45/49
f 72/49/50 71/42/50 69/43/50 70/47/50
f 18/14/51 60/15/51 64/40/51 22/31/51
f 60/15/52 59/34/52 63/41/52 64/40/52
f 19/33/53 61/50/53 65/41/53 23/37/53
f 61/50/54 62/15/54 66/40/54 65/41/54
f 2/12/55 44/13/55 60/15/55 18/14/55
f 44/13/56 43/5/56 59/34/56 60/15/56
f 9/18/57 53/24/57 57/26/57 13/19/57
f 53/24/58 54/23/58 58/28/58 57/26/58
f 12/9/59 51/23/59 55/28/59 16/27/59
f 51/23/60 52/24/60 56/26/60 55/28/60
f 35/29/61 74/48/61 58/28/61 14/27/61
f 74/48/62 73/25/62 57/26/62 58/28/62
f 8/8/63 45/21/63 51/23/63 12/9/63
f 45/21/64 46/6/64 52/24/64 51/23/64
f 5/16/65 49/6/65 53/24/65 9/18/65
f 49/6/66 50/21/66 54/23/66 53/24/66
f 6/22/67 50/21/67 44/13/67 2/12/67
f 50/21/68 49/6/68 43/5/68 44/13/68
f 3/4/69 47/5/69 61/50/69 19/33/69
f 47/5/70 48/13/70 62/15/70 61/50/70
f 4/12/71 48/13/71 45/21/71 8/8/71
f 48/13/72 47/5/72 46/6/72 45/21/72
f 84/51/73 83/52/73 78/53/73 77/54/73
f 92/55/73 90/56/73 80/57/73 85/58/73
f 89/59/73 87/60/73 81/61/73 86/62/73
f 88/63/73 89/59/73 86/62/73 82/64/73
f 91/65/73 92/55/73 85/58/73 79/66/73
f 75/67/73 76/68/73 83/52/73 84/51/73
f 78/53/73 83/52/73 89/59/73 88/63/73
f 83/52/73 76/68/73 87/60/73 89/59/73
f 75/67/73 84/51/73 92/55/73 91/65/73
f 84/51/73 77/54/73 90/56/73 92/55/73
f 76/68/73 75/67/73 93/69/73 94/70/73
f 109/71/73 100/72/73 98/73/73 106/74/73
f 104/75/73 96/76/73 99/77/73 107/78/73
f 107/78/73 99/77/73 100/72/73 109/71/73
f 102/79/73 108/80/73 110/81/73 101/82/73
f 108/80/73 107/78/73 109/71/73 110/81/73
f 95/83/73 103/84/73 108/80/73 102/79/73
f 103/84/73 104/75/73 107/78/73 108/80/73
f 101/82/73 110/81/73 105/85/73 97/86/73
f 110/81/73 109/71/73 106/74/73 105/85/73
f 104/75/73 103/84/73 113/87/73 114/88/73
f 103/84/73 95/83/73 111/89/73 113/87/73
f 96/76/73 104/75/73 114/88/73 112/90/73
f 134/91/73 127/92/73 117/93/73 132/94/73
f 130/95/73 128/96/73 121/97/73 118/98/73
f 128/96/73 129/99/73 122/100/73 121/97/73
f 119/101/73 120/102/73 126/103/73 125/104/73
f 116/105/73 119/101/73 125/104/73 124/106/73
f 131/107/73 115/108/73 123/109/73 133/110/73
f 125/104/73 126/103/73 129/99/73 128/96/73
f 124/106/73 125/104/73 128/96/73 130/95/73
f 133/110/73 123/109/73 127/92/73 134/91/73
f 135/111/73 133/110/73 134/91/73 136/112/73
f 137/113/73 131/107/73 133/110/73 135/111/73
f 136/112/73 134/91/73 132/94/73 138/114/73
f 129/99/73 136/112/73 138/114/73 122/100/73
f 120/102/73 137/113/73 135/111/73 126/103/73
f 126/103/73 135/111/73 136/112/73 129/99/73
f 150/115/74 146/116/74 142/117/74 144/118/74
f 147/119/74 150/115/74 144/118/74 141/120/74
f 139/121/74 143/122/74 149/123/74 148/124/74
f 148/124/74 149/123/74 150/115/74 147/119/74
f 143/122/74 140/125/74 145/126/74 149/123/74
f 149/123/74 145/126/74 146/116/74 150/115/74
