<?xml version="1.0" standalone="no"?>
<!DOCTYPE svg PUBLIC "-//W3C//DTD SVG 20010904//EN" "http://www.w3.org/TR/2001/REC-SVG-20010904/DTD/svg10.dtd">
<!-- Created using Krita: https://krita.org -->
<svg xmlns="http://www.w3.org/2000/svg" 
    xmlns:xlink="http://www.w3.org/1999/xlink"
    xmlns:krita="http://krita.org/namespaces/svg/krita"
    xmlns:sodipodi="http://sodipodi.sourceforge.net/DTD/sodipodi-0.dtd"
    width="595.2pt"
    height="595.2pt"
    viewBox="0 0 595.2 595.2">
<defs/>
<path id="shape0" transform="translate(50.3999966642019, 10.4021996291182)" fill="#f47aed" fill-rule="evenodd" stroke="#ffffff" stroke-width="9.6" stroke-linecap="square" stroke-linejoin="bevel" d="M309.769 8.83851C339.715 15.5294 340.001 19.6939 389.743 10.1025C417.598 4.7313 387.417 82.2031 376.414 102.792C355.525 141.88 262.755 178.617 262.56 191.198C261.63 251.233 267.659 262.8 267.36 287.198C266.98 318.28 364.74 274.742 380.984 266.263C422.197 244.749 403.977 160.561 427.445 171.045C467.861 189.102 494.771 170.428 509.704 171.045C543.415 172.438 522.875 277.838 454.103 326.09C379.752 378.256 276.047 382.193 273.59 409.511C268.853 462.171 290.143 571.37 257.595 572.56C234.654 573.399 189.413 578.591 162.769 573.824C146.247 570.868 155.547 495.366 160.103 468.916C164.614 442.734 87.9547 463.604 46.9974 432.262C-1.62586 395.053 -9.28415 294.166 9.29545 294.491C37.9279 294.992 37.855 303.332 66.4197 295.755C83.4416 291.24 67.1317 351.795 107.549 372.856C126.193 382.571 163.838 386.356 165.245 367.168C167.951 330.24 172.86 199.918 172.32 189.278C171.582 174.729 108.747 178.661 72.1321 144.081C28.3073 102.692 10.8696 -2.05584 26.4327 2.51876C55.1239 10.9522 73.4438 9.6117 101.28 0.1578C112.197 -3.54976 101.256 59.1183 122.401 78.3557C155.768 108.713 171.383 114.035 210.373 112.482C239.999 111.302 273.699 95.1754 289.204 70.7721C307.032 42.7131 298.182 6.24961 309.769 8.83851Z" sodipodi:nodetypes="csssssssssssssssssssssssss"/>
</svg>
