<?xml version="1.0" standalone="no"?>
<!DOCTYPE svg PUBLIC "-//W3C//DTD SVG 20010904//EN" "http://www.w3.org/TR/2001/REC-SVG-20010904/DTD/svg10.dtd">
<!-- Created using Krita: https://krita.org -->
<svg xmlns="http://www.w3.org/2000/svg" 
    xmlns:xlink="http://www.w3.org/1999/xlink"
    xmlns:krita="http://krita.org/namespaces/svg/krita"
    xmlns:sodipodi="http://sodipodi.sourceforge.net/DTD/sodipodi-0.dtd"
    width="595.2pt"
    height="595.2pt"
    viewBox="0 0 595.2 595.2">
<defs>
  <radialGradient id="gradient0" gradientUnits="objectBoundingBox" cx="-0.29248652300132" cy="-0.52194553138585" fx="0.533463650998876" fy="0.0723321933843205" r="2.08589224357266" spreadMethod="pad">
   <stop stop-color="#6b6a7b" offset="0.1615" stop-opacity="1"/>
   <stop stop-color="#48b3ff" offset="0.2615" stop-opacity="1"/>
   <stop stop-color="#ffffff" offset="0.3308" stop-opacity="1"/>
   <stop stop-color="#bfbfbf" offset="0.415384615384615" stop-opacity="1"/>
   <stop stop-color="#ff0000" offset="0.5077" stop-opacity="1"/>
  </radialGradient>
 </defs>
<path id="shape0" transform="matrix(1.21283083115886 -0.00275783021495163 0.00275783021495163 1.21283083115886 168.55145060628 152.561429345757)" fill="#e6e6e6" fill-rule="evenodd" stroke="#000000" stroke-width="9.6" stroke-linecap="square" stroke-linejoin="bevel" d="M106.08 0.475391C73.5226 -1.7784 38.1626 3.9816 0 17.7554L48.96 58.0754L81.36 45.1154C102.558 15.682 110.798 0.802017 106.08 0.475391Z" sodipodi:nodetypes="ccccs"/><path id="shape1" transform="matrix(0.8556508246982 -0.859550985590908 0.859550985590908 0.8556508246982 15.8089948296236 358.1151956594)" fill="#c0ffff" fill-rule="evenodd" stroke="#000000" stroke-width="9.6" stroke-linecap="square" stroke-linejoin="bevel" d="M0 0L217.233 111.435L328.668 328.668L28.5359 300.132Z" sodipodi:nodetypes="ccccc"/><path id="shape0" transform="matrix(1.21283088648367 -0.00275783034075353 0.00275783034075353 1.21283088648367 341.165223247452 217.802070629653)" fill="#e6e6e6" fill-rule="evenodd" stroke="#000000" stroke-width="9.6" stroke-linecap="square" stroke-linejoin="bevel" d="M46.44 0L0 49.32L38.52 73.08C47.389 65.5228 59.7628 43.498 46.44 0Z" sodipodi:nodetypes="cccc"/><path id="shape01" transform="matrix(-0.0809936289544376 -1.21012659762288 -1.21012659762288 0.0809936289544376 352.227004299806 378.607124523078)" fill="#e6e6e6" fill-rule="evenodd" stroke="#000000" stroke-width="9.6" stroke-linecap="square" stroke-linejoin="bevel" d="M83.1726 6.70748C59.1809 -3.31515 32.3503 -1.7961 0 9.19826L39.6968 48.4792L58.4707 48.7085C76.4402 25.2145 89.9151 9.52423 83.1726 6.70748Z" sodipodi:nodetypes="ccccs"/><path id="shape02" transform="matrix(1.21283088045173 -0.00275783032703764 0.00275783032703764 1.21283088045173 79.8975672633777 335.894617349049)" fill="#e6e6e6" fill-rule="evenodd" stroke="#000000" stroke-width="9.6" stroke-linecap="square" stroke-linejoin="bevel" d="M100.8 2.12099C86.3749 16.979 41.5975 24.0324 0 42.081C0.308726 45.7503 57.0289 45.018 64.8 52.161C70.0296 56.9679 99.2683 103.067 112.32 140.361C118.924 100.551 102.778 53.2998 111.6 24.801C120.422 -3.69779 104.393 -1.58019 100.8 2.12099Z" sodipodi:nodetypes="ccsczs"/><path id="shape2" transform="matrix(1.21283083115886 -0.00275783021495163 0.00275783021495163 1.21283083115886 180.145335999566 9.76796323748954)" fill="url(#gradient0)" fill-rule="evenodd" stroke="#000000" stroke-width="9.6" stroke-linecap="square" stroke-linejoin="bevel" d="M234.013 116.989C255.745 86.2226 261.007 8.02269 251.428 3.03505C213.992 -16.4554 129.051 63.3978 109.333 86.8687C63.4239 141.514 50.154 207.28 36.733 231.229C22.5386 256.558 -14.9934 294.876 6.49297 311.869C22.8981 324.843 46.4892 286.67 64.093 272.029C75.8079 262.285 133.614 231.672 144.253 224.029C172.453 203.77 221.087 135.288 234.013 116.989Z" sodipodi:nodetypes="csssssss"/><ellipse id="shape3" transform="matrix(1.21283083115886 -0.00275783021495163 0.00275783021495163 1.21283083115886 403.371538202793 43.3696271419782)" rx="26.1599999203575" ry="26.1599999203575" cx="26.1599999203575" cy="26.1599999203575" fill="#f6fdff" fill-rule="evenodd" stroke="#000000" stroke-width="9.6" stroke-linecap="square" stroke-linejoin="bevel"/><circle id="shape03" transform="matrix(1.21283080295668 -0.00275783015082329 0.00275783015082329 1.21283080295668 426.122008570967 60.789310414264)" r="9.11729583325833" cx="9.11729583325833" cy="9.11729583325833" fill="#0a0a00" fill-rule="evenodd" stroke="#000000" stroke-width="9.6" stroke-linecap="square" stroke-linejoin="bevel"/>
</svg>
