<?xml version="1.0" standalone="no"?>
<!DOCTYPE svg PUBLIC "-//W3C//DTD SVG 20010904//EN" "http://www.w3.org/TR/2001/REC-SVG-20010904/DTD/svg10.dtd">
<!-- Created using Krita: https://krita.org -->
<svg xmlns="http://www.w3.org/2000/svg" 
    xmlns:xlink="http://www.w3.org/1999/xlink"
    xmlns:krita="http://krita.org/namespaces/svg/krita"
    xmlns:sodipodi="http://sodipodi.sourceforge.net/DTD/sodipodi-0.dtd"
    width="595.2pt"
    height="595.2pt"
    viewBox="0 0 595.2 595.2">
<defs/>
<path id="shape0" transform="matrix(1.28241307209802 -0.021742222397318 0.021742222397318 1.28241307209802 292.56533074852 58.0575204949379)" fill="#297f00" fill-rule="evenodd" stroke="#ffffff" stroke-width="9.6" stroke-linecap="square" stroke-linejoin="bevel" d="M39.2926 168.187C42.6662 150.307 30.6347 109.891 22.9876 82.2183C18.1065 64.5551 -4.89945 38.4238 0.943662 9.11415C7.51417 -23.8442 50.8589 40.4464 55.2406 77.0043C57.8526 98.7966 59.7415 127.284 64.1352 147.005C67.7648 163.296 71.7468 173.478 71.0167 208.331C69.499 280.779 45.0063 400.85 25.3084 398.383C-0.40549 395.162 34.4418 193.896 39.2926 168.187Z" sodipodi:nodetypes="csssssss"/><path id="shape0" transform="matrix(1.25319478293169 -0.273054778877685 0.273054778877685 1.25319478293169 94.0057334826391 34.5830909725579)" fill="#297f00" fill-rule="evenodd" stroke="#ffffff" stroke-width="9.6" stroke-linecap="square" stroke-linejoin="bevel" d="M33.4234 440.402C21.4772 438.611 -14.0966 309.842 6.0634 233.042C26.2234 156.242 2.22339 148.562 11.1034 104.162C19.9834 59.7622 46.3834 -31.9178 53.5834 11.2822C60.7834 54.4822 71.3434 95.7622 59.8234 151.442C48.3034 207.122 42.5434 215.762 42.5434 269.522C42.5434 323.282 36.7834 336.722 53.1034 379.922C69.4234 423.122 53.2441 443.375 33.4234 440.402Z" sodipodi:nodetypes="csssssss"/><path id="shape01" transform="matrix(1.25562270692264 0.261663219545291 -0.261663219545291 1.25562270692264 368.242529786787 6.0744101153294)" fill="#297f00" fill-rule="evenodd" stroke="#ffffff" stroke-width="9.6" stroke-linecap="square" stroke-linejoin="bevel" d="M12.1665 409.272C6.63543 391.716 10.3456 324.905 2.05682 293.704C-7.91804 256.155 21.158 200.624 30.038 156.224C38.918 111.824 2.09932 10.8 44.5963 0.212779C66.6544 -5.28256 77.6314 96.9986 66.1114 152.678C54.5914 208.358 40.7944 228.194 40.7944 281.954C40.7944 335.714 47.0379 375.262 63.3579 418.462C79.6779 461.662 21.1318 437.728 12.1665 409.272Z" sodipodi:nodetypes="csssssss"/><path id="shape02" transform="matrix(1.28241307557573 -0.0217422224562799 0.0217422224562799 1.28241307557573 226.88204509437 207.779817684137)" fill="#297f00" fill-rule="evenodd" stroke="#ffffff" stroke-width="9.6" stroke-linecap="square" stroke-linejoin="bevel" d="M28.0861 282.4C22.3255 264.918 14.9492 218.184 6.66045 186.983C-3.31441 149.434 -1.31615 135.625 7.56385 91.2245C16.4439 46.8245 1.89187 10.9829 44.3888 0.395703C66.4469 -5.09964 46.2446 47.5273 34.7246 103.207C23.2046 158.887 43.7533 154.015 43.7533 207.775C43.7533 261.535 70.5272 248.389 70.8731 278.805C71.0587 295.119 33.6472 299.276 28.0861 282.4Z" sodipodi:nodetypes="csssssss"/><path id="shape03" transform="matrix(1.14997604607566 0.56798864880808 -0.56798864880808 1.14997604607566 415.610931614594 223.366097572293)" fill="#297f00" fill-rule="evenodd" stroke="#ffffff" stroke-width="9.6" stroke-linecap="square" stroke-linejoin="bevel" d="M37.0551 271.293C31.2945 253.811 49.2834 221.048 40.9946 189.847C31.0197 152.298 10.3814 134.966 19.2614 90.5659C28.1414 46.1659 -26.0154 10.9802 16.4815 0.392961C38.5396 -5.10238 64.5275 47.9308 53.0075 103.61C41.4875 159.29 74.4218 148.486 74.4218 202.246C74.4218 256.006 69.8411 247.801 65.7389 265.959C62.1437 281.873 42.6162 288.169 37.0551 271.293Z" sodipodi:nodetypes="csssssss"/><path id="shape04" transform="matrix(1.28241307209802 -0.0217422223973182 0.0217422223973182 1.28241307209802 130.289161449885 325.848673104818)" fill="#297f00" fill-rule="evenodd" stroke="#ffffff" stroke-width="9.6" stroke-linecap="square" stroke-linejoin="bevel" d="M58.6369 176.448C52.8763 158.966 14.9493 143.395 6.66056 112.194C-3.31456 74.6449 -1.31604 60.8359 7.56396 16.4354C16.444 -27.9646 34.263 27.7669 34.1447 63.6966C34.0598 89.4635 23.9828 109.409 46.6226 120.556C56.8581 125.596 69.9395 138.548 81.641 178.758C86.1997 194.424 64.1978 193.324 58.6369 176.448Z" sodipodi:nodetypes="cssssss"/>
</svg>
